<?xml version="1.0" standalone="no"?>
<!DOCTYPE svg PUBLIC "-//W3C//DTD SVG 20010904//EN"
 "http://www.w3.org/TR/2001/REC-SVG-20010904/DTD/svg10.dtd">
<svg version="1.0" xmlns="http://www.w3.org/2000/svg"
 width="241.000000pt" height="210.000000pt" viewBox="0 0 241.000000 210.000000"
 preserveAspectRatio="xMidYMid meet">

<g transform="translate(0.000000,210.000000) scale(0.100000,-0.100000)"
fill="#000000" stroke="none">
<path d="M1036 2085 c-65 -23 -90 -46 -141 -129 -6 -9 -37 -21 -75 -29 -56
-11 -65 -16 -68 -36 -2 -13 1 -28 7 -34 20 -20 13 -40 -11 -31 -13 4 -88 11
-168 15 -80 4 -170 12 -200 19 -30 7 -121 14 -202 17 -145 4 -147 4 -160 -19
-17 -31 -18 -219 0 -240 10 -13 36 -14 160 -10 103 3 152 8 162 18 13 11 20
10 45 -6 17 -11 37 -20 45 -20 27 0 175 -96 187 -121 7 -14 17 -85 23 -159 13
-152 23 -204 49 -264 32 -71 35 -86 14 -86 -29 0 -75 -36 -100 -77 -29 -48
-30 -112 -2 -170 28 -58 138 -157 267 -242 59 -39 141 -93 182 -122 l75 -51
-1 -52 c0 -34 -10 -70 -29 -107 -25 -51 -32 -58 -65 -63 -20 -3 -44 -14 -54
-25 -17 -18 -16 -19 17 -30 39 -13 239 -18 275 -7 13 4 22 15 22 27 0 12 11
24 28 31 15 7 50 27 78 45 51 32 53 32 111 21 59 -11 61 -10 104 19 50 35 123
73 139 73 5 0 10 -25 11 -57 1 -73 13 -170 22 -179 4 -4 16 1 27 11 20 18 21
48 5 203 l-5 42 55 0 55 0 0 -75 c0 -41 4 -75 9 -75 25 0 41 15 41 39 0 14 3
36 6 49 l7 23 28 -27 c18 -17 29 -38 29 -55 0 -34 16 -46 70 -55 38 -6 52 -3
107 27 58 31 63 37 63 67 0 46 -22 92 -63 131 -29 28 -37 44 -43 87 -7 62 3
164 17 164 5 0 9 -16 9 -35 0 -24 5 -35 15 -35 11 0 15 12 15 49 0 31 -5 53
-15 61 -25 21 -17 30 25 28 31 -1 40 -5 35 -16 -3 -7 -3 -18 0 -22 9 -14 35 0
35 19 1 14 2 14 15 -2 10 -15 21 -17 45 -12 31 7 32 8 28 56 -1 27 2 51 7 53
6 3 3 11 -7 18 -9 8 -18 25 -21 38 -4 24 -4 24 -6 2 0 -12 -8 -25 -16 -28 -8
-4 -15 -12 -15 -20 0 -28 -48 -11 -60 21 -6 17 -20 24 -54 29 -29 5 -55 16
-69 31 -14 15 -40 27 -71 32 -33 6 -53 15 -64 31 -14 21 -13 22 19 22 19 0 50
10 69 22 l35 23 -30 3 c-16 1 -53 7 -82 13 -42 8 -52 14 -55 32 -2 12 -15 27
-29 34 -35 17 -83 110 -104 203 -10 41 -24 80 -31 86 -7 6 -29 48 -49 93 -26
62 -35 97 -35 139 -1 112 -55 178 -170 208 -61 16 -129 15 -199 -3 -21 -5 -23
-3 -17 13 17 40 17 52 2 67 -9 8 -16 32 -16 53 0 65 -22 117 -70 165 -64 64
-142 83 -224 54z m-258 -436 c4 -24 3 -24 -12 -4 -19 24 -20 38 -3 33 6 -3 13
-15 15 -29z m-254 -24 c7 -19 -8 -19 -59 0 l-40 14 46 1 c33 0 49 -5 53 -15z
m452 -58 l21 -38 -61 -62 c-39 -39 -74 -87 -95 -130 -18 -38 -35 -67 -37 -65
-3 3 -77 209 -100 280 -9 25 40 47 67 30 32 -20 113 -15 134 8 26 28 46 22 71
-23z m136 -564 c25 -60 44 -109 43 -111 -1 -1 -15 4 -31 13 -16 8 -50 15 -75
15 -26 0 -79 7 -119 16 l-72 17 28 23 c16 13 42 23 57 24 38 0 67 17 67 39 0
19 36 71 49 71 5 0 29 -48 53 -107z m873 -143 c-3 -5 -11 -10 -16 -10 -6 0 -7
5 -4 10 3 6 11 10 16 10 6 0 7 -4 4 -10z m-657 -495 c3 -14 0 -15 -15 -6 -27
16 -53 37 -53 44 0 14 65 -23 68 -38z"/>
</g>
</svg>
